<?xml version="1.0" encoding="utf-8"?>
<!-- Generator: Adobe Illustrator 16.0.0, SVG Export Plug-In . SVG Version: 6.00 Build 0)  -->
<!DOCTYPE svg PUBLIC "-//W3C//DTD SVG 1.1//EN" "http://www.w3.org/Graphics/SVG/1.1/DTD/svg11.dtd">
<svg version="1.1" id="Layer_1" xmlns="http://www.w3.org/2000/svg" xmlns:xlink="http://www.w3.org/1999/xlink" x="0px" y="0px"
	 width="173.5px" height="249.5px" viewBox="0 0 173.5 249.5" enable-background="new 0 0 173.5 249.5" xml:space="preserve">
<path fill="#FFFFFF" d="M22.984,246.813c0,0.063-0.019,0.121-0.057,0.168c-0.04,0.057-0.101,0.098-0.185,0.129
	c-0.087,0.029-0.201,0.059-0.346,0.076c-0.144,0.021-0.324,0.03-0.545,0.03c-0.223,0-0.409-0.009-0.555-0.03
	c-0.146-0.019-0.264-0.047-0.346-0.076c-0.083-0.031-0.144-0.072-0.181-0.129c-0.038-0.047-0.056-0.105-0.056-0.168v-5.043h-4.177
	v5.043c0,0.063-0.02,0.121-0.054,0.168c-0.035,0.057-0.094,0.098-0.183,0.129c-0.084,0.029-0.2,0.059-0.346,0.076
	c-0.143,0.021-0.326,0.03-0.55,0.03c-0.218,0-0.4-0.009-0.548-0.03c-0.147-0.019-0.264-0.047-0.35-0.076
	c-0.085-0.031-0.147-0.072-0.186-0.129c-0.038-0.047-0.056-0.105-0.056-0.168v-11.781c0-0.063,0.018-0.122,0.056-0.172
	c0.039-0.051,0.101-0.094,0.186-0.123c0.086-0.034,0.203-0.061,0.35-0.079c0.148-0.021,0.33-0.03,0.548-0.03
	c0.224,0,0.407,0.012,0.55,0.03c0.146,0.02,0.262,0.045,0.346,0.079c0.089,0.029,0.147,0.072,0.183,0.123
	c0.034,0.05,0.054,0.108,0.054,0.172v4.58h4.177v-4.58c0-0.063,0.018-0.122,0.056-0.172c0.037-0.051,0.098-0.094,0.181-0.123
	c0.082-0.034,0.2-0.061,0.346-0.079c0.146-0.021,0.332-0.03,0.555-0.03c0.221,0,0.401,0.012,0.545,0.03
	c0.145,0.02,0.259,0.045,0.346,0.079c0.084,0.029,0.145,0.072,0.185,0.123c0.038,0.05,0.057,0.108,0.057,0.172V246.813z
	 M30.831,237.066H30.82l-1.579,5.301h3.168L30.831,237.066z M35.96,246.214c0.068,0.229,0.111,0.412,0.13,0.55
	c0.014,0.133-0.006,0.234-0.073,0.301c-0.06,0.07-0.173,0.108-0.334,0.127c-0.163,0.017-0.384,0.024-0.667,0.024
	c-0.291,0-0.521-0.004-0.686-0.017c-0.162-0.01-0.289-0.03-0.375-0.057c-0.084-0.029-0.147-0.067-0.183-0.119
	c-0.032-0.057-0.061-0.119-0.085-0.205l-0.752-2.504h-4.196l-0.706,2.438c-0.023,0.088-0.053,0.165-0.093,0.229
	c-0.034,0.059-0.095,0.107-0.178,0.145c-0.083,0.034-0.204,0.061-0.354,0.07c-0.155,0.018-0.354,0.021-0.601,0.021
	c-0.266,0-0.472-0.009-0.623-0.03c-0.15-0.019-0.252-0.063-0.309-0.141c-0.059-0.072-0.079-0.18-0.061-0.313
	c0.017-0.137,0.061-0.315,0.129-0.541l3.445-11.063c0.035-0.106,0.073-0.196,0.12-0.265c0.048-0.068,0.122-0.117,0.222-0.156
	c0.1-0.031,0.238-0.053,0.418-0.064c0.176-0.01,0.416-0.017,0.708-0.017c0.337,0,0.609,0.007,0.813,0.017
	c0.2,0.013,0.355,0.033,0.468,0.064c0.112,0.039,0.195,0.088,0.24,0.163c0.051,0.067,0.093,0.164,0.128,0.288L35.96,246.214z
	 M44.187,238.658c0-0.439-0.068-0.799-0.206-1.081c-0.138-0.281-0.309-0.493-0.51-0.628c-0.2-0.135-0.411-0.219-0.633-0.252
	c-0.223-0.038-0.451-0.055-0.687-0.055h-0.967v4.23h1.017c0.363,0,0.667-0.057,0.911-0.164c0.244-0.109,0.445-0.264,0.601-0.458
	c0.156-0.196,0.274-0.433,0.354-0.705S44.187,238.979,44.187,238.658z M46.563,238.475c0,0.698-0.098,1.319-0.296,1.86
	c-0.193,0.538-0.48,0.993-0.854,1.36c-0.375,0.371-0.835,0.65-1.376,0.846c-0.545,0.189-1.185,0.291-1.922,0.291h-0.931v3.98
	c0,0.062-0.021,0.121-0.055,0.168c-0.04,0.056-0.102,0.097-0.187,0.129c-0.088,0.029-0.203,0.058-0.346,0.076
	c-0.144,0.021-0.329,0.029-0.554,0.029c-0.217,0-0.4-0.009-0.547-0.029c-0.147-0.02-0.266-0.047-0.35-0.076
	c-0.086-0.032-0.148-0.073-0.181-0.129c-0.035-0.047-0.052-0.106-0.052-0.168V235.59c0-0.299,0.069-0.525,0.211-0.678
	c0.142-0.151,0.328-0.229,0.558-0.229h2.63c0.267,0,0.52,0.014,0.757,0.033c0.239,0.023,0.526,0.073,0.859,0.146
	c0.335,0.074,0.672,0.21,1.013,0.41c0.345,0.199,0.636,0.451,0.879,0.757c0.242,0.303,0.424,0.661,0.55,1.069
	C46.497,237.508,46.563,237.966,46.563,238.475z M51.991,246.813c0,0.063-0.021,0.121-0.058,0.168
	c-0.035,0.057-0.097,0.098-0.186,0.129c-0.085,0.029-0.2,0.059-0.346,0.076c-0.144,0.021-0.326,0.03-0.55,0.03
	c-0.218,0-0.401-0.009-0.548-0.03c-0.147-0.019-0.264-0.047-0.351-0.076c-0.084-0.031-0.147-0.072-0.186-0.129
	c-0.039-0.047-0.055-0.105-0.055-0.168v-11.781c0-0.063,0.016-0.122,0.055-0.172c0.039-0.051,0.102-0.094,0.192-0.123
	c0.089-0.034,0.202-0.061,0.348-0.079c0.144-0.021,0.327-0.03,0.545-0.03c0.224,0,0.406,0.012,0.55,0.03
	c0.146,0.02,0.261,0.045,0.346,0.079c0.089,0.029,0.151,0.072,0.186,0.123c0.037,0.05,0.058,0.108,0.058,0.172V246.813z
	 M65.025,246.27c0,0.147-0.024,0.279-0.066,0.397c-0.048,0.115-0.11,0.211-0.187,0.286c-0.08,0.079-0.17,0.135-0.277,0.171
	c-0.106,0.034-0.213,0.054-0.323,0.054h-0.967c-0.201,0-0.378-0.022-0.522-0.068c-0.146-0.045-0.282-0.129-0.407-0.243
	c-0.123-0.119-0.243-0.282-0.359-0.484c-0.115-0.198-0.244-0.464-0.385-0.786l-2.782-5.83c-0.16-0.349-0.325-0.721-0.492-1.119
	c-0.166-0.401-0.315-0.795-0.448-1.174h-0.018c0.023,0.463,0.042,0.924,0.052,1.383c0.011,0.459,0.016,0.935,0.016,1.42v6.527
	c0,0.063-0.016,0.121-0.047,0.172c-0.03,0.051-0.087,0.096-0.164,0.131c-0.078,0.035-0.182,0.063-0.315,0.082
	c-0.133,0.021-0.304,0.029-0.51,0.029c-0.199,0-0.369-0.009-0.501-0.029c-0.132-0.02-0.234-0.047-0.311-0.082
	c-0.074-0.035-0.124-0.08-0.154-0.131c-0.03-0.051-0.044-0.107-0.044-0.172V235.59c0-0.299,0.079-0.525,0.239-0.678
	c0.155-0.151,0.35-0.229,0.58-0.229h1.221c0.218,0,0.4,0.021,0.549,0.063c0.151,0.043,0.284,0.11,0.402,0.207
	c0.119,0.097,0.23,0.229,0.333,0.403c0.103,0.166,0.208,0.377,0.317,0.627l2.178,4.559c0.128,0.275,0.251,0.549,0.375,0.816
	c0.125,0.267,0.246,0.531,0.36,0.799c0.114,0.267,0.226,0.529,0.335,0.787c0.108,0.258,0.214,0.514,0.319,0.771h0.007
	c-0.018-0.452-0.029-0.919-0.037-1.407c-0.011-0.49-0.013-0.955-0.013-1.396v-5.854c0-0.06,0.017-0.121,0.05-0.173
	c0.034-0.049,0.094-0.096,0.174-0.135c0.079-0.036,0.185-0.067,0.317-0.081c0.134-0.015,0.306-0.025,0.512-0.025
	c0.197,0,0.357,0.012,0.492,0.025c0.132,0.014,0.236,0.045,0.305,0.081c0.076,0.039,0.124,0.086,0.151,0.135
	c0.03,0.052,0.043,0.113,0.043,0.173v11.211H65.025z M77.811,236.625c0,0.184-0.006,0.346-0.021,0.479
	c-0.015,0.138-0.035,0.244-0.062,0.324c-0.026,0.081-0.056,0.137-0.093,0.172c-0.039,0.031-0.084,0.045-0.133,0.045
	c-0.077,0-0.197-0.054-0.363-0.172c-0.167-0.117-0.388-0.244-0.667-0.378c-0.276-0.137-0.606-0.261-0.986-0.376
	c-0.384-0.113-0.828-0.175-1.334-0.175c-0.542,0-1.032,0.106-1.469,0.315c-0.438,0.207-0.812,0.505-1.122,0.885
	c-0.31,0.383-0.551,0.846-0.715,1.38c-0.168,0.534-0.251,1.128-0.251,1.78c0,0.711,0.085,1.339,0.252,1.882
	c0.172,0.543,0.407,1,0.714,1.364c0.306,0.365,0.673,0.644,1.102,0.83c0.427,0.186,0.901,0.278,1.418,0.278
	c0.252,0,0.502-0.034,0.75-0.094c0.248-0.065,0.479-0.162,0.693-0.291v-2.894h-2.116c-0.103,0-0.185-0.071-0.241-0.217
	c-0.06-0.144-0.086-0.39-0.086-0.734c0-0.182,0.005-0.334,0.021-0.453c0.015-0.124,0.035-0.223,0.066-0.295
	c0.029-0.077,0.062-0.129,0.103-0.167c0.042-0.034,0.084-0.052,0.138-0.052h3.771c0.092,0,0.175,0.018,0.247,0.052
	c0.072,0.038,0.135,0.09,0.19,0.159c0.056,0.074,0.097,0.158,0.126,0.258c0.027,0.101,0.041,0.216,0.041,0.342v4.965
	c0,0.189-0.029,0.355-0.087,0.502c-0.061,0.146-0.186,0.262-0.372,0.344c-0.188,0.084-0.42,0.17-0.694,0.264
	c-0.278,0.09-0.563,0.164-0.86,0.23c-0.295,0.063-0.595,0.11-0.898,0.143c-0.301,0.035-0.606,0.05-0.912,0.05
	c-0.89,0-1.688-0.146-2.396-0.431c-0.704-0.287-1.299-0.699-1.788-1.244c-0.489-0.543-0.862-1.202-1.123-1.982
	c-0.26-0.781-0.389-1.666-0.389-2.656c0-1.021,0.138-1.938,0.416-2.752c0.274-0.813,0.666-1.503,1.173-2.072
	c0.506-0.568,1.116-1.002,1.833-1.306c0.719-0.302,1.518-0.45,2.396-0.45c0.486,0,0.925,0.037,1.321,0.108
	c0.397,0.076,0.744,0.164,1.041,0.269c0.296,0.104,0.542,0.222,0.737,0.342c0.198,0.125,0.333,0.233,0.41,0.32
	c0.08,0.088,0.136,0.217,0.171,0.381C77.793,236.059,77.811,236.299,77.811,236.625z M94.133,235.725
	c0,0.189-0.009,0.346-0.023,0.478c-0.016,0.132-0.036,0.239-0.063,0.319c-0.03,0.08-0.063,0.142-0.106,0.178
	c-0.045,0.041-0.092,0.061-0.144,0.061h-2.799v10.055c0,0.062-0.017,0.121-0.056,0.168c-0.039,0.056-0.099,0.097-0.185,0.129
	c-0.085,0.029-0.205,0.058-0.351,0.076c-0.145,0.021-0.329,0.029-0.551,0.029c-0.219,0-0.397-0.009-0.547-0.029
	c-0.145-0.02-0.262-0.047-0.348-0.076c-0.089-0.032-0.148-0.073-0.188-0.129c-0.037-0.047-0.057-0.106-0.057-0.168V236.76H85.92
	c-0.057,0-0.107-0.02-0.145-0.061c-0.042-0.036-0.077-0.098-0.107-0.178c-0.026-0.08-0.05-0.188-0.063-0.319
	c-0.013-0.131-0.022-0.287-0.022-0.478c0-0.189,0.009-0.353,0.022-0.488c0.013-0.137,0.037-0.244,0.063-0.323
	c0.03-0.081,0.065-0.138,0.107-0.175c0.038-0.036,0.088-0.055,0.145-0.055h7.875c0.051,0,0.098,0.019,0.143,0.055
	c0.043,0.037,0.078,0.094,0.107,0.175c0.027,0.079,0.049,0.187,0.063,0.323C94.124,235.373,94.133,235.535,94.133,235.725z
	 M105.563,246.813c0,0.063-0.018,0.121-0.057,0.168c-0.038,0.057-0.1,0.098-0.184,0.129c-0.086,0.029-0.2,0.059-0.346,0.076
	c-0.146,0.021-0.326,0.03-0.547,0.03c-0.224,0-0.406-0.009-0.557-0.03c-0.146-0.019-0.262-0.047-0.344-0.076
	c-0.084-0.031-0.146-0.072-0.182-0.129c-0.037-0.047-0.057-0.105-0.057-0.168v-5.043h-4.18v5.043c0,0.063-0.016,0.121-0.051,0.168
	c-0.037,0.057-0.097,0.098-0.185,0.129c-0.085,0.029-0.2,0.059-0.347,0.076c-0.143,0.021-0.323,0.03-0.549,0.03
	c-0.217,0-0.398-0.009-0.549-0.03c-0.146-0.019-0.266-0.047-0.351-0.076c-0.086-0.031-0.149-0.072-0.187-0.129
	c-0.037-0.047-0.054-0.105-0.054-0.168v-11.781c0-0.063,0.017-0.122,0.054-0.172c0.037-0.051,0.101-0.094,0.187-0.123
	c0.085-0.034,0.203-0.061,0.351-0.079c0.149-0.021,0.332-0.03,0.549-0.03c0.226,0,0.406,0.012,0.549,0.03
	c0.146,0.02,0.262,0.045,0.347,0.079c0.088,0.029,0.147,0.072,0.185,0.123c0.035,0.05,0.051,0.108,0.051,0.172v4.58h4.18v-4.58
	c0-0.063,0.02-0.122,0.057-0.172c0.035-0.051,0.098-0.094,0.182-0.123c0.082-0.034,0.197-0.061,0.344-0.079
	c0.148-0.021,0.333-0.03,0.557-0.03c0.221,0,0.4,0.012,0.547,0.03c0.146,0.019,0.26,0.045,0.346,0.079
	c0.084,0.029,0.146,0.072,0.184,0.123c0.039,0.05,0.057,0.108,0.057,0.172V246.813z M116.009,246.166
	c0,0.188-0.007,0.342-0.021,0.466c-0.016,0.123-0.036,0.226-0.066,0.306c-0.027,0.074-0.063,0.133-0.107,0.168
	c-0.041,0.035-0.09,0.055-0.143,0.055h-5.609c-0.191,0-0.351-0.063-0.479-0.19c-0.132-0.124-0.196-0.329-0.196-0.61v-10.871
	c0-0.282,0.064-0.485,0.196-0.613c0.129-0.124,0.287-0.188,0.479-0.188h5.576c0.051,0,0.096,0.018,0.137,0.052
	c0.043,0.03,0.074,0.085,0.104,0.167c0.028,0.08,0.051,0.186,0.066,0.31c0.013,0.126,0.021,0.282,0.021,0.478
	c0,0.179-0.009,0.332-0.021,0.457c-0.018,0.125-0.038,0.229-0.066,0.303c-0.029,0.079-0.063,0.135-0.104,0.169
	c-0.041,0.036-0.086,0.054-0.137,0.054h-3.986v3.045h3.373c0.054,0,0.101,0.02,0.146,0.053c0.041,0.035,0.075,0.093,0.104,0.162
	c0.029,0.078,0.052,0.176,0.063,0.303c0.017,0.126,0.021,0.275,0.021,0.459s-0.004,0.342-0.021,0.461
	c-0.013,0.122-0.034,0.223-0.063,0.293c-0.029,0.074-0.063,0.131-0.104,0.16c-0.045,0.029-0.092,0.047-0.146,0.047h-3.373v3.517
	h4.021c0.052,0,0.101,0.021,0.142,0.056c0.047,0.035,0.082,0.091,0.108,0.17c0.03,0.074,0.052,0.177,0.065,0.301
	C116.002,245.824,116.009,245.982,116.009,246.166z M130.732,246.1c0,0.189-0.004,0.354-0.019,0.483
	c-0.017,0.133-0.036,0.242-0.067,0.327c-0.027,0.088-0.063,0.152-0.106,0.186c-0.043,0.041-0.095,0.063-0.149,0.063h-5.119
	c-0.191,0-0.353-0.063-0.481-0.19c-0.128-0.124-0.192-0.328-0.192-0.609v-11.327c0-0.063,0.018-0.122,0.057-0.171
	c0.037-0.053,0.098-0.094,0.184-0.125c0.09-0.033,0.205-0.06,0.352-0.078c0.148-0.02,0.332-0.03,0.551-0.03
	c0.223,0,0.406,0.011,0.552,0.03c0.144,0.02,0.258,0.045,0.344,0.078c0.089,0.031,0.149,0.072,0.187,0.125
	c0.039,0.049,0.06,0.107,0.06,0.171v10.032h3.513c0.057,0,0.106,0.021,0.149,0.056s0.079,0.094,0.106,0.173
	c0.031,0.083,0.052,0.188,0.067,0.32C130.729,245.743,130.732,245.905,130.732,246.1z M135.74,246.813
	c0,0.063-0.021,0.121-0.059,0.168c-0.037,0.057-0.097,0.098-0.187,0.129c-0.085,0.029-0.2,0.059-0.347,0.076
	c-0.146,0.021-0.324,0.03-0.551,0.03c-0.217,0-0.399-0.009-0.548-0.03c-0.146-0.019-0.265-0.047-0.35-0.076
	c-0.086-0.031-0.147-0.072-0.185-0.129c-0.041-0.047-0.059-0.105-0.059-0.168v-11.781c0-0.063,0.018-0.122,0.059-0.172
	c0.037-0.051,0.099-0.094,0.191-0.123c0.086-0.034,0.201-0.061,0.348-0.079c0.143-0.021,0.325-0.03,0.541-0.03
	c0.228,0,0.406,0.012,0.553,0.03c0.146,0.019,0.261,0.045,0.346,0.079c0.09,0.029,0.148,0.072,0.188,0.123
	c0.035,0.05,0.058,0.108,0.058,0.172L135.74,246.813L135.74,246.813z M145.125,246.712c-0.027,0.11-0.066,0.198-0.111,0.269
	c-0.049,0.064-0.121,0.115-0.225,0.154c-0.105,0.032-0.245,0.057-0.426,0.064c-0.176,0.013-0.411,0.017-0.695,0.017
	c-0.23,0-0.43-0.004-0.594-0.004c-0.165-0.005-0.303-0.013-0.42-0.026c-0.112-0.013-0.206-0.03-0.279-0.06
	c-0.072-0.024-0.132-0.056-0.182-0.094c-0.049-0.038-0.088-0.086-0.113-0.142c-0.025-0.054-0.049-0.123-0.072-0.207l-3.324-11.057
	c-0.065-0.229-0.107-0.414-0.123-0.547c-0.016-0.134,0.016-0.239,0.086-0.303c0.067-0.071,0.193-0.109,0.367-0.125
	c0.17-0.018,0.413-0.027,0.727-0.027c0.265,0,0.47,0.007,0.621,0.02c0.146,0.016,0.264,0.037,0.345,0.07
	c0.081,0.032,0.137,0.079,0.168,0.145c0.032,0.063,0.063,0.146,0.093,0.238l2.719,9.62h0.008l2.668-9.569
	c0.022-0.109,0.05-0.195,0.086-0.265c0.035-0.069,0.094-0.124,0.177-0.157c0.081-0.043,0.205-0.066,0.358-0.082
	c0.153-0.013,0.367-0.02,0.638-0.02c0.265,0,0.472,0.012,0.618,0.03c0.147,0.019,0.246,0.065,0.305,0.139
	c0.051,0.075,0.07,0.181,0.051,0.313c-0.021,0.136-0.068,0.318-0.132,0.541L145.125,246.712z M158.029,246.166
	c0,0.188-0.006,0.342-0.021,0.466c-0.015,0.123-0.034,0.226-0.063,0.306c-0.029,0.074-0.063,0.133-0.108,0.168
	c-0.04,0.035-0.092,0.055-0.144,0.055h-5.609c-0.191,0-0.352-0.063-0.479-0.19c-0.131-0.124-0.196-0.329-0.196-0.61v-10.871
	c0-0.282,0.065-0.485,0.196-0.613c0.127-0.124,0.285-0.188,0.479-0.188h5.576c0.053,0,0.098,0.018,0.139,0.052
	c0.04,0.03,0.074,0.085,0.104,0.167c0.029,0.08,0.051,0.186,0.065,0.31c0.013,0.126,0.021,0.282,0.021,0.478
	c0,0.179-0.008,0.332-0.021,0.457c-0.016,0.125-0.036,0.229-0.065,0.303c-0.028,0.079-0.063,0.135-0.104,0.169
	c-0.041,0.036-0.086,0.054-0.139,0.054h-3.987v3.045h3.374c0.055,0,0.102,0.02,0.146,0.053c0.039,0.035,0.074,0.093,0.104,0.162
	c0.029,0.078,0.051,0.176,0.066,0.303c0.015,0.126,0.019,0.275,0.019,0.459s-0.004,0.342-0.019,0.461
	c-0.016,0.122-0.037,0.223-0.066,0.293c-0.027,0.074-0.064,0.131-0.104,0.16c-0.047,0.029-0.094,0.047-0.146,0.047h-3.374v3.517
	h4.021c0.052,0,0.104,0.021,0.144,0.056c0.045,0.035,0.079,0.091,0.108,0.17c0.029,0.074,0.05,0.177,0.063,0.301
	C158.023,245.824,158.029,245.982,158.029,246.166z M167.87,243.417c0,0.654-0.106,1.229-0.324,1.728
	c-0.218,0.492-0.517,0.907-0.894,1.236c-0.371,0.331-0.807,0.578-1.307,0.745c-0.503,0.171-1.039,0.252-1.609,0.252
	c-0.387,0-0.745-0.032-1.074-0.106c-0.331-0.067-0.622-0.153-0.876-0.252c-0.252-0.103-0.466-0.205-0.638-0.315
	c-0.166-0.108-0.289-0.203-0.364-0.291c-0.077-0.081-0.13-0.2-0.158-0.358c-0.032-0.156-0.047-0.385-0.047-0.68
	c0-0.2,0.007-0.365,0.015-0.5c0.012-0.134,0.032-0.247,0.057-0.329c0.025-0.083,0.063-0.141,0.106-0.177
	c0.04-0.036,0.091-0.055,0.149-0.055c0.078,0,0.193,0.055,0.342,0.158c0.143,0.104,0.333,0.224,0.566,0.352
	c0.229,0.128,0.504,0.248,0.821,0.353c0.32,0.106,0.688,0.16,1.11,0.16c0.277,0,0.521-0.039,0.744-0.11
	c0.216-0.078,0.4-0.181,0.555-0.313c0.15-0.136,0.27-0.302,0.348-0.503c0.084-0.2,0.123-0.418,0.123-0.662
	c0-0.281-0.07-0.527-0.207-0.729c-0.14-0.203-0.317-0.385-0.541-0.539c-0.222-0.157-0.475-0.306-0.756-0.443
	c-0.281-0.139-0.572-0.286-0.869-0.438c-0.302-0.156-0.593-0.332-0.873-0.526c-0.283-0.198-0.533-0.431-0.758-0.705
	c-0.222-0.272-0.4-0.595-0.537-0.968c-0.143-0.373-0.207-0.817-0.207-1.342c0-0.597,0.1-1.121,0.297-1.574
	c0.197-0.452,0.465-0.828,0.805-1.123c0.336-0.303,0.732-0.525,1.189-0.676c0.457-0.146,0.944-0.219,1.457-0.219
	c0.262,0,0.525,0.018,0.793,0.064c0.264,0.047,0.514,0.105,0.741,0.186c0.229,0.075,0.435,0.162,0.61,0.26
	c0.182,0.096,0.3,0.18,0.354,0.238c0.062,0.068,0.1,0.119,0.12,0.164c0.021,0.051,0.034,0.107,0.052,0.18
	c0.014,0.075,0.025,0.168,0.029,0.28c0.004,0.11,0.008,0.252,0.008,0.421c0,0.182-0.004,0.342-0.012,0.469
	c-0.009,0.127-0.025,0.233-0.045,0.319c-0.02,0.081-0.047,0.146-0.088,0.181c-0.036,0.041-0.085,0.062-0.148,0.062
	c-0.064,0-0.166-0.047-0.305-0.135c-0.137-0.091-0.303-0.188-0.508-0.296c-0.201-0.105-0.432-0.201-0.701-0.285
	c-0.264-0.09-0.551-0.133-0.871-0.133c-0.248,0-0.462,0.029-0.645,0.101c-0.186,0.065-0.34,0.161-0.463,0.28
	c-0.125,0.119-0.217,0.261-0.277,0.428c-0.057,0.171-0.09,0.346-0.09,0.529c0,0.277,0.065,0.518,0.203,0.723
	c0.137,0.198,0.317,0.38,0.545,0.538c0.227,0.158,0.481,0.306,0.772,0.438c0.288,0.141,0.578,0.287,0.88,0.442
	c0.295,0.154,0.59,0.329,0.881,0.522c0.285,0.197,0.543,0.431,0.768,0.703c0.224,0.273,0.404,0.597,0.544,0.965
	C167.805,242.482,167.87,242.918,167.87,243.417z M11.14,243.417c0,0.654-0.109,1.229-0.327,1.728
	c-0.218,0.492-0.516,0.907-0.89,1.236c-0.374,0.331-0.81,0.578-1.312,0.745c-0.501,0.171-1.036,0.252-1.605,0.252
	c-0.385,0-0.746-0.032-1.076-0.106c-0.33-0.067-0.62-0.153-0.875-0.252c-0.254-0.103-0.466-0.205-0.638-0.315
	c-0.168-0.108-0.292-0.203-0.365-0.291c-0.077-0.081-0.129-0.2-0.158-0.358c-0.034-0.156-0.047-0.385-0.047-0.68
	c0-0.2,0.006-0.365,0.013-0.5c0.013-0.134,0.034-0.247,0.057-0.329c0.027-0.083,0.063-0.141,0.107-0.177
	c0.042-0.036,0.092-0.055,0.15-0.055c0.079,0,0.193,0.055,0.343,0.158c0.143,0.104,0.333,0.224,0.565,0.352
	c0.229,0.128,0.503,0.248,0.821,0.353c0.321,0.106,0.689,0.16,1.111,0.16c0.278,0,0.524-0.039,0.742-0.11
	c0.218-0.078,0.404-0.181,0.558-0.313c0.151-0.136,0.268-0.302,0.347-0.503c0.083-0.2,0.122-0.418,0.122-0.662
	c0-0.281-0.07-0.527-0.207-0.729c-0.139-0.203-0.318-0.385-0.541-0.539c-0.221-0.157-0.474-0.306-0.754-0.443
	c-0.283-0.139-0.574-0.286-0.872-0.438c-0.301-0.156-0.593-0.332-0.873-0.526c-0.283-0.198-0.533-0.431-0.759-0.705
	c-0.22-0.272-0.4-0.595-0.538-0.968c-0.139-0.373-0.205-0.817-0.205-1.342c0-0.597,0.099-1.121,0.296-1.574
	c0.197-0.452,0.467-0.828,0.804-1.123c0.336-0.303,0.735-0.525,1.191-0.676c0.458-0.146,0.943-0.219,1.456-0.219
	c0.262,0,0.528,0.018,0.793,0.064c0.264,0.047,0.513,0.105,0.743,0.186c0.229,0.075,0.433,0.162,0.612,0.26
	c0.18,0.096,0.298,0.18,0.355,0.238c0.058,0.068,0.096,0.119,0.117,0.164c0.021,0.051,0.035,0.107,0.049,0.18
	c0.015,0.075,0.028,0.168,0.033,0.28c0.002,0.11,0.005,0.252,0.005,0.421c0,0.182-0.003,0.342-0.011,0.469
	c-0.009,0.127-0.024,0.233-0.046,0.319c-0.017,0.081-0.046,0.146-0.084,0.181c-0.039,0.041-0.089,0.062-0.151,0.062
	c-0.064,0-0.166-0.047-0.303-0.135c-0.139-0.091-0.307-0.188-0.509-0.296c-0.201-0.105-0.433-0.201-0.699-0.285
	c-0.265-0.09-0.554-0.133-0.873-0.133c-0.248,0-0.463,0.029-0.646,0.101c-0.185,0.065-0.338,0.161-0.461,0.28
	c-0.125,0.119-0.216,0.261-0.278,0.428c-0.059,0.171-0.092,0.346-0.092,0.529c0,0.277,0.067,0.518,0.204,0.723
	c0.135,0.198,0.317,0.38,0.546,0.538c0.226,0.158,0.483,0.306,0.771,0.438c0.288,0.141,0.58,0.287,0.881,0.442
	c0.298,0.154,0.592,0.329,0.88,0.522c0.286,0.197,0.542,0.431,0.767,0.703c0.223,0.273,0.405,0.597,0.544,0.965
	C11.072,242.482,11.14,242.918,11.14,243.417z"/>
<rect x="3.564" y="3.745" fill="#274056" width="166.204" height="184.778"/>
<polygon fill="#FFFFFF" points="171.061,5.038 89.24,86.859 115.671,113.288 113.082,115.873 85.359,88.151 84.068,86.859 
	85.359,85.564 168.473,2.452 "/>
<path fill="#FFFFFF" d="M153.461,189.109h-10.703l-9.924-17.901h-11.223v17.901h-9.471v-45.666h23.418
	c5.188,0,9.039,0.973,11.547,2.921c2.812,2.204,4.215,5.813,4.215,10.831c0,7.223-3.049,11.504-9.146,12.844L153.461,189.109z
	 M105.617,158.364c0,7.915-3.439,12.628-10.314,14.14c-1.99,0.432-4.908,0.648-8.758,0.648H74.999v15.957h-9.471v-45.666h20.628
	c3.545,0,6.335,0.193,8.37,0.582c3.632,0.692,6.42,2.339,8.365,4.933C104.707,151.465,105.617,154.602,105.617,158.364z
	 M95.105,158.364c0-2.683-0.885-4.54-2.656-5.578c-1.385-0.778-3.525-1.167-6.422-1.167H74.999v13.425h11.61
	C92.273,165.043,95.105,162.818,95.105,158.364z M56.974,189.109H40.887c-3.59,0-6.378-0.301-8.368-0.907
	c-4.412-1.343-7.697-4.085-9.86-8.237c-1.86-3.547-2.789-7.828-2.789-12.844c0-7.74,1.579-13.536,4.735-17.387
	c3.459-4.195,8.973-6.291,16.542-6.291h15.827v7.85H41.34c-4.453,0-7.546,1.688-9.276,5.061c-1.21,2.422-1.815,6.141-1.815,11.156
	c0,4.584,0.69,7.893,2.076,9.926c1.642,2.465,4.648,3.695,9.015,3.695h15.634V189.109z M141.723,157.325
	c0-2.423-0.867-4.044-2.597-4.864c-1.169-0.563-3.114-0.842-5.839-0.842h-11.676v11.48h11.676c2.637,0,4.563-0.324,5.771-0.975
	C140.833,161.26,141.723,159.661,141.723,157.325z"/>
<path fill="#FFFFFF" d="M168.512,212.094c0,1.432-0.486,2.682-1.457,3.748c-0.97,1.067-2.094,1.602-3.38,1.602
	c-1.256,0-2.321-0.457-3.202-1.366c-0.877-0.91-1.4-2.067-1.57-3.47l1.906-0.465c0,0.931,0.285,1.711,0.858,2.334
	c0.571,0.621,1.274,0.935,2.112,0.935c0.896,0,1.598-0.365,2.113-1.099c0.474-0.672,0.713-1.518,0.713-2.547
	c0-1.043-0.608-1.908-1.819-2.594c-1.134-0.592-2.261-1.191-3.394-1.799c-1.213-0.889-1.82-2.098-1.82-3.623
	c0-1.277,0.48-2.338,1.445-3.18c0.893-0.76,1.918-1.144,3.075-1.144c1.773,0,3.076,0.872,3.914,2.617l-1.485,1.027
	c-0.584-1.104-1.424-1.66-2.515-1.66c-0.61,0-1.179,0.219-1.69,0.653c-0.562,0.484-0.838,1.061-0.838,1.73
	c0,0.982,0.605,1.783,1.819,2.405c2.162,1.124,3.292,1.722,3.392,1.801C167.902,208.955,168.512,210.316,168.512,212.094
	 M156.719,217.794l-11.556-13.623v12.897h-1.884V198.96l11.49,13.647v-12.807h1.948L156.719,217.794L156.719,217.794z
	 M139.439,208.424c0-1.932-0.59-3.582-1.77-4.954c-1.179-1.37-2.628-2.058-4.341-2.058c-1.718,0-3.166,0.688-4.347,2.058
	c-1.178,1.372-1.769,3.022-1.769,4.954c0,1.916,0.591,3.561,1.769,4.932c1.181,1.371,2.629,2.056,4.347,2.056
	c1.7,0,3.146-0.688,4.33-2.068C138.846,211.966,139.439,210.326,139.439,208.424z M141.346,208.424c0,2.491-0.777,4.619-2.332,6.379
	c-1.559,1.762-3.453,2.641-5.684,2.641c-2.221,0-4.107-0.879-5.663-2.641c-1.556-1.76-2.333-3.888-2.333-6.379
	c0-2.49,0.773-4.609,2.322-6.357c1.551-1.742,3.439-2.614,5.674-2.614c2.218,0,4.105,0.876,5.672,2.628
	C140.563,203.832,141.346,205.945,141.346,208.424z M123.215,217.07h-1.904v-17.269h1.904V217.07z M119.645,201.764h-3.643v15.307
	h-1.887v-15.307h-3.661v-1.962h9.19V201.764L119.645,201.764z M109.361,216.229c-1.271,0.811-2.604,1.215-3.998,1.215
	c-2.232,0-4.131-0.909-5.693-2.733c-1.564-1.821-2.344-3.985-2.344-6.496c0-2.383,0.811-4.438,2.429-6.168
	c1.617-1.729,3.502-2.594,5.647-2.594c1.467,0,2.787,0.364,3.959,1.099v2.522c-1.188-1.138-2.555-1.707-4.104-1.707
	c-1.604,0-3.011,0.694-4.218,2.081s-1.81,2.976-1.81,4.767c0,1.933,0.563,3.606,1.693,5.024c1.174,1.479,2.617,2.22,4.333,2.22
	c1.466,0,2.832-0.59,4.104-1.776V216.229L109.361,216.229z M95.266,210.761c0,1.917-0.504,3.495-1.51,4.743
	c-1.046,1.295-2.422,1.939-4.123,1.939c-1.662,0-3.014-0.64-4.062-1.916c-1.018-1.23-1.527-2.781-1.527-4.648v-11.077h1.905v10.563
	c0,1.479,0.28,2.655,0.838,3.528c0.627,1.014,1.578,1.519,2.846,1.519c2.482,0,3.727-1.743,3.727-5.234v-10.374h1.906V210.761z
	 M79.577,204.78c0-2.042-1.347-3.063-4.04-3.063h-0.628v6.287c1.424,0,2.463-0.154,3.119-0.468
	C79.061,207.053,79.577,206.134,79.577,204.78z M82.528,217.07h-2.282l-4.542-7.291h-0.795v7.291h-1.904v-17.269h2.742
	c1.227,0,2.212,0.153,2.95,0.466c0.991,0.392,1.729,1.099,2.219,2.129c0.293,0.605,0.44,1.354,0.44,2.242
	c0,1.23-0.337,2.319-1.015,3.272c-0.676,0.948-1.56,1.495-2.648,1.632L82.528,217.07z M71.258,201.764h-3.642v15.307h-1.885v-15.307
	H62.07v-1.962h9.188V201.764z M61.118,212.094c0,1.432-0.484,2.682-1.454,3.748c-0.971,1.067-2.097,1.602-3.381,1.602
	c-1.255,0-2.324-0.457-3.203-1.366c-0.879-0.91-1.401-2.067-1.57-3.47l1.905-0.465c0,0.931,0.286,1.711,0.858,2.334
	c0.573,0.621,1.276,0.935,2.113,0.935c0.894,0,1.599-0.365,2.116-1.099c0.472-0.672,0.71-1.518,0.71-2.547
	c0-1.043-0.608-1.908-1.821-2.594c-1.129-0.592-2.26-1.191-3.39-1.799c-1.213-0.889-1.821-2.098-1.821-3.623
	c0-1.277,0.482-2.338,1.443-3.18c0.893-0.76,1.919-1.144,3.079-1.144c1.771,0,3.076,0.872,3.914,2.617l-1.487,1.027
	c-0.585-1.104-1.425-1.66-2.511-1.66c-0.615,0-1.179,0.219-1.697,0.653c-0.556,0.484-0.835,1.061-0.835,1.73
	c0,0.982,0.606,1.783,1.821,2.405c2.162,1.124,3.292,1.722,3.392,1.801C60.512,208.955,61.118,210.316,61.118,212.094z
	 M49.325,217.794l-11.552-13.623v12.897h-1.885V198.96l11.493,13.647v-12.807h1.944V217.794z M32.049,208.424
	c0-1.932-0.588-3.582-1.768-4.954c-1.179-1.37-2.627-2.058-4.343-2.058c-1.717,0-3.165,0.688-4.342,2.058
	c-1.18,1.372-1.77,3.022-1.77,4.954c0,1.916,0.59,3.561,1.77,4.932c1.177,1.371,2.625,2.056,4.342,2.056
	c1.703,0,3.146-0.688,4.333-2.068C31.456,211.966,32.049,210.326,32.049,208.424z M33.954,208.424c0,2.491-0.778,4.619-2.333,6.379
	c-1.556,1.762-3.45,2.641-5.683,2.641c-2.22,0-4.106-0.879-5.663-2.641c-1.555-1.76-2.333-3.888-2.333-6.379
	c0-2.49,0.773-4.609,2.322-6.357c1.55-1.742,3.441-2.614,5.673-2.614c2.217,0,4.11,0.876,5.672,2.628
	C33.173,203.832,33.954,205.945,33.954,208.424z M16.472,216.229c-1.27,0.811-2.603,1.215-3.998,1.215
	c-2.233,0-4.13-0.909-5.692-2.733c-1.564-1.821-2.345-3.985-2.345-6.496c0-2.383,0.809-4.438,2.427-6.168
	c1.621-1.729,3.505-2.594,5.653-2.594c1.465,0,2.783,0.364,3.956,1.099v2.522c-1.187-1.138-2.553-1.707-4.102-1.707
	c-1.605,0-3.011,0.694-4.218,2.081s-1.811,2.976-1.811,4.767c0,1.933,0.566,3.606,1.695,5.024c1.172,1.479,2.616,2.22,4.334,2.22
	c1.464,0,2.832-0.59,4.102-1.776L16.472,216.229L16.472,216.229z"/>
<line fill="none" stroke="#274056" stroke-width="0.7999" stroke-miterlimit="2.6131" x1="3.847" y1="226.904" x2="168.552" y2="226.904"/>
</svg>
